<?xml version="1.0" standalone="no"?>
<!DOCTYPE svg PUBLIC "-//W3C//DTD SVG 20010904//EN"
 "http://www.w3.org/TR/2001/REC-SVG-20010904/DTD/svg10.dtd">
<svg version="1.0" xmlns="http://www.w3.org/2000/svg"
 width="192.000000pt" height="192.000000pt" viewBox="0 0 192.000000 192.000000"
 preserveAspectRatio="xMidYMid meet">

<g transform="translate(0.000000,192.000000) scale(0.100000,-0.100000)"
fill="#000000" stroke="none">
<path d="M842 1909 c-316 -41 -596 -239 -739 -524 -128 -254 -133 -566 -14
-821 102 -216 244 -361 456 -465 223 -108 464 -126 700 -52 318 100 556 352
641 679 36 135 38 317 6 448 -97 393 -400 671 -799 731 -106 16 -154 17 -251
4z m236 -385 c109 -22 203 -74 288 -159 156 -155 211 -382 142 -591 l-21 -64
-118 0 -119 0 35 63 c82 150 58 330 -62 451 -114 114 -281 144 -429 75 -66
-31 -149 -116 -182 -186 -23 -50 -27 -71 -27 -153 0 -82 4 -103 27 -152 32
-68 96 -140 156 -175 75 -44 137 -53 382 -53 l225 0 68 -85 c37 -47 70 -92 73
-100 5 -13 -35 -15 -304 -15 -170 0 -331 4 -358 9 -159 30 -293 122 -383 261
-53 82 -81 168 -88 270 -10 167 41 311 154 431 149 157 332 216 541 173z"/>
</g>
</svg>
